<svg width="36" height="29" viewBox="0 0 36 29" fill="none" xmlns="http://www.w3.org/2000/svg">
<path fill-rule="evenodd" clip-rule="evenodd" d="M6.41504 2.0759C6.41504 1.46013 6.91422 0.960938 7.52997 0.960938H17.936C18.4618 0.960938 18.9161 1.32821 19.0263 1.84228L21.2561 12.2487C21.3266 12.5778 21.2445 12.9214 21.0329 13.1832C20.8213 13.445 20.5026 13.5972 20.1659 13.5972H13.4763C12.8605 13.5972 12.3614 13.098 12.3614 12.4822C12.3614 11.8665 12.8605 11.3673 13.4763 11.3673H18.7868L17.0347 3.19087H8.64491V10.9956C8.64491 11.6114 8.14573 12.1106 7.52997 12.1106C6.91422 12.1106 6.41504 11.6114 6.41504 10.9956V2.0759Z" fill="#E9090C"/>
<path fill-rule="evenodd" clip-rule="evenodd" d="M15.3359 12.4822C15.3359 11.8664 15.8351 11.3672 16.4509 11.3672H28.3435C32.2434 11.3672 35.4047 14.5286 35.4047 18.4286V19.9152C35.4047 21.3521 34.24 22.5168 32.8032 22.5168H31.3167C30.7009 22.5168 30.2017 22.0176 30.2017 21.4019C30.2017 20.7861 30.7009 20.2869 31.3167 20.2869H32.8032C33.0085 20.2869 33.1749 20.1206 33.1749 19.9152V18.4286C33.1749 15.7603 31.0118 13.5971 28.3435 13.5971H16.4509C15.8351 13.5971 15.3359 13.0979 15.3359 12.4822ZM16.8225 21.4019C16.8225 20.7861 17.3217 20.2869 17.9374 20.2869H23.8838C24.4995 20.2869 24.9987 20.7861 24.9987 21.4019C24.9987 22.0176 24.4995 22.5168 23.8838 22.5168H17.9374C17.3217 22.5168 16.8225 22.0176 16.8225 21.4019Z" fill="#E9090C"/>
<path fill-rule="evenodd" clip-rule="evenodd" d="M27.599 21.0268C26.1622 21.0268 24.9974 22.1916 24.9974 23.6284C24.9974 25.0652 26.1622 26.23 27.599 26.23C29.0357 26.23 30.2005 25.0652 30.2005 23.6284C30.2005 22.1916 29.0357 21.0268 27.599 21.0268ZM22.7676 23.6284C22.7676 20.9601 24.9307 18.7969 27.599 18.7969C30.2672 18.7969 32.4303 20.9601 32.4303 23.6284C32.4303 26.2967 30.2672 28.4599 27.599 28.4599C24.9307 28.4599 22.7676 26.2967 22.7676 23.6284Z" fill="#E9090C"/>
<path fill-rule="evenodd" clip-rule="evenodd" d="M7.53097 16.5737C4.86267 16.5737 2.69959 18.7369 2.69959 21.4052C2.69959 24.0735 4.86267 26.2367 7.53097 26.2367C10.1993 26.2367 12.3624 24.0735 12.3624 21.4052C12.3624 18.7369 10.1993 16.5737 7.53097 16.5737ZM0.469727 21.4052C0.469727 17.5052 3.63116 14.3438 7.53097 14.3438C11.4308 14.3438 14.5922 17.5052 14.5922 21.4052C14.5922 25.3052 11.4308 28.4666 7.53097 28.4666C3.63116 28.4666 0.469727 25.3052 0.469727 21.4052Z" fill="#E9090C"/>
<path fill-rule="evenodd" clip-rule="evenodd" d="M7.52979 12.1127C6.6055 12.1127 5.71461 12.2474 4.87467 12.4973C4.28449 12.673 3.66366 12.3369 3.48802 11.7467C3.31237 11.1565 3.64843 10.5357 4.2386 10.3601C5.28277 10.0493 6.38783 9.88281 7.52979 9.88281C13.8927 9.88281 19.0508 15.0411 19.0508 21.4041C19.0508 22.0199 18.5516 22.5191 17.9358 22.5191C17.3201 22.5191 16.8209 22.0199 16.8209 21.4041C16.8209 16.2726 12.6611 12.1127 7.52979 12.1127Z" fill="#E9090C"/>
<path fill-rule="evenodd" clip-rule="evenodd" d="M3.44141 2.0759C3.44141 1.46013 3.94058 0.960938 4.55634 0.960938H20.9087C21.5244 0.960938 22.0236 1.46013 22.0236 2.0759C22.0236 2.69167 21.5244 3.19087 20.9087 3.19087H4.55634C3.94058 3.19087 3.44141 2.69167 3.44141 2.0759Z" fill="#E9090C"/>
<path fill-rule="evenodd" clip-rule="evenodd" d="M28.3427 7.6518C28.1374 7.6518 27.9711 7.8182 27.9711 8.02346V12.4833C27.9711 13.0991 27.4719 13.5983 26.8561 13.5983C26.2404 13.5983 25.7412 13.0991 25.7412 12.4833V8.02346C25.7412 6.58664 26.9059 5.42188 28.3427 5.42188H29.086C29.7018 5.42188 30.2009 5.92107 30.2009 6.53684C30.2009 7.15261 29.7018 7.6518 29.086 7.6518H28.3427Z" fill="#E9090C"/>
</svg>
