<svg width="15" height="9" viewBox="0 0 15 9" fill="none" xmlns="http://www.w3.org/2000/svg">
<path d="M14.5791 0.41897C14.3125 0.150622 13.9518 0 13.5759 0C13.2 0 12.8394 0.150622 12.5728 0.41897L7.46443 5.51935L2.42724 0.41897C2.16063 0.150622 1.79999 0 1.42407 0C1.04815 0 0.687506 0.150622 0.420902 0.41897C0.287532 0.552909 0.181674 0.712262 0.109433 0.887835C0.0371927 1.06341 0 1.25173 0 1.44193C0 1.63213 0.0371927 1.82045 0.109433 1.99602C0.181674 2.17159 0.287532 2.33095 0.420902 2.46489L6.45414 8.57382C6.58642 8.70886 6.7438 8.81605 6.9172 8.88919C7.0906 8.96234 7.27658 9 7.46443 9C7.65227 9 7.83826 8.96234 8.01165 8.88919C8.18505 8.81605 8.34243 8.70886 8.47471 8.57382L14.5791 2.46489C14.7125 2.33095 14.8183 2.17159 14.8906 1.99602C14.9628 1.82045 15 1.63213 15 1.44193C15 1.25173 14.9628 1.06341 14.8906 0.887835C14.8183 0.712262 14.7125 0.552909 14.5791 0.41897Z" fill="#A1A1A1"/>
</svg>
