<svg width="9" height="7" viewBox="0 0 9 7" fill="none" xmlns="http://www.w3.org/2000/svg">
<path d="M8.7307 0.673372C8.57759 0.546801 8.38066 0.485864 8.18282 0.503835C7.98498 0.521807 7.80226 0.617231 7.67446 0.76932L4.50004 4.57806L1.32558 0.769383C1.19814 0.616697 1.01528 0.520887 0.817201 0.503031C0.619126 0.485174 0.422071 0.546733 0.269384 0.674166C0.116698 0.801598 0.0208876 0.984466 0.00303084 1.18254C-0.0148259 1.38061 0.0467336 1.57767 0.174167 1.73035L3.92433 6.23047C3.99468 6.31483 4.08271 6.38271 4.1822 6.42928C4.28168 6.47586 4.39019 6.5 4.50004 6.5C4.60989 6.5 4.71839 6.47586 4.81788 6.42928C4.91736 6.38271 5.00539 6.31483 5.07574 6.23047L8.82591 1.73029C8.9533 1.57745 9.01482 1.3803 8.99697 1.18213C8.97912 0.983967 8.88335 0.800986 8.7307 0.673372Z" fill="#E9090C"/>
</svg>
